<svg xmlns="http://www.w3.org/2000/svg" width="48" height="48" viewBox="0 0 48 48"><path d="M 24 0 C 10.751096 0 1.1e-005 10.7511 0 24 C 0 37.2489 10.751088 48 24 48 C 37.248911 48 48 37.2489 48 24 C 47.999989 10.7511 37.248903 0 24 0 z M 24 1 C 36.708464 1 46.999989 11.2916 47 24 C 47 36.7085 36.708471 47 24 47 C 11.291528 47 1 36.7085 1 24 C 1.000011 11.2916 11.291536 1 24 1 z M 13.5 10 A 0.50005 0.50005 0 0 0 13 10.5 L 13 16.5 A 0.50005 0.50005 0 0 0 13.5 17 L 17.5 17 A 0.50005 0.50005 0 0 0 17.984375 16.623047 L 18.390625 15 L 19.691406 15 L 20.052734 15.724609 A 0.50005 0.50005 0 0 0 20.5 16 L 21.058594 16 L 21.503906 19.5625 A 0.50005 0.50005 0 0 0 22 20 L 22 39.5 A 0.50005 0.50005 0 0 0 22.5 40 L 25.5 40 A 0.50005 0.50005 0 0 0 26 39.5 L 26 20 A 0.50005 0.50005 0 0 0 26.496094 19.5625 L 26.941406 16 L 27 16 C 27.398736 16 27.790396 16.11985 28.121094 16.34375 A 0.50005 0.50005 0 0 0 28.189453 16.382812 L 28.25 16.410156 L 33.666016 19.785156 C 34.405904 20.246256 35.372666 19.965622 35.800781 19.232422 C 36.015941 18.864122 36.042746 18.431966 35.929688 18.072266 C 35.816626 17.712666 35.587565 17.415334 35.308594 17.177734 L 29.863281 12.541016 L 29.847656 12.525391 L 29.845703 12.525391 C 28.872684 11.551891 27.711327 11.001953 26.507812 11.001953 L 26.5 11.001953 L 20.5 11.001953 A 0.50005 0.50005 0 0 0 20.052734 11.277344 L 19.691406 12.001953 L 18.472656 12.001953 L 17.978516 10.357422 A 0.50005 0.50005 0 0 0 17.5 10.001953 L 13.5 10.001953 L 13.5 10 z M 14 11 L 17.128906 11 L 17.621094 12.642578 A 0.50005 0.50005 0 0 0 18.099609 13 L 20 13 A 0.50005 0.50005 0 0 0 20.447266 12.722656 L 20.808594 12 L 26.5 12 L 26.507812 12 C 27.410373 12 28.312542 12.401169 29.140625 13.230469 A 0.50005 0.50005 0 0 0 29.142578 13.230469 L 29.173828 13.259766 A 0.50005 0.50005 0 0 0 29.201172 13.285156 L 34.660156 17.933594 C 34.824221 18.073294 34.933086 18.237041 34.974609 18.369141 C 35.016129 18.501241 35.01418 18.591456 34.9375 18.722656 C 34.781935 18.989156 34.441445 19.086241 34.193359 18.931641 L 28.751953 15.541016 A 0.50005 0.50005 0 0 0 28.699219 15.511719 L 28.611328 15.470703 C 28.129843 15.167203 27.572508 15 27 15 L 26.5 15 A 0.50005 0.50005 0 0 0 26.003906 15.439453 L 25.558594 19 L 25.535156 19 L 22.5 19 L 22.441406 19 L 21.996094 15.439453 A 0.50005 0.50005 0 0 0 21.5 15 L 20.808594 15 L 20.447266 14.277344 A 0.50005 0.50005 0 0 0 20 14 L 18 14 A 0.50005 0.50005 0 0 0 17.515625 14.378906 L 17.109375 16 L 14 16 L 14 11 z M 23 20 L 25 20 L 25 39 L 23 39 L 23 20 z " color="#000" font-family="sans-serif" font-weight="400" overflow="visible" white-space="normal" style="line-height:normal;text-indent:0;text-align:start;text-decoration-line:none;text-decoration-style:solid;text-decoration-color:#000;text-transform:none;block-progression:tb;isolation:auto;mix-blend-mode:normal"/></svg>